<?xml version="1.0" encoding="UTF-8"?>
<svg version="1.1" xmlns="http://www.w3.org/2000/svg" width="500" height="500">
<path d="M0 0 C165 0 330 0 500 0 C500 165 500 330 500 500 C335 500 170 500 0 500 C0 335 0 170 0 0 Z " fill="#001570" transform="translate(0,0)"/>
<path d="M0 0 C4.62 0 9.24 0 14 0 C16.56765095 6.79774967 19.13103772 13.59708568 21.69042969 20.39794922 C22.5622956 22.71284748 23.4353395 25.02730242 24.30957031 27.34130859 C25.56362541 30.66128439 26.8134801 33.98281467 28.0625 37.3046875 C28.45622803 38.34430634 28.84995605 39.38392517 29.25561523 40.45504761 C29.79617554 41.89631516 29.79617554 41.89631516 30.34765625 43.36669922 C30.66742432 44.21497284 30.98719238 45.06324646 31.31665039 45.93722534 C32 48 32 48 32 50 C32.66 50 33.32 50 34 50 C34.16725586 49.40791748 34.33451172 48.81583496 34.50683594 48.20581055 C35.85907918 43.54692417 37.33655271 38.98591809 39.078125 34.45703125 C39.61179687 33.06387695 39.61179687 33.06387695 40.15625 31.64257812 C40.89139707 29.74038509 41.63636335 27.84196057 42.390625 25.94726562 C44.85701065 19.44126672 45.54895248 15.11187787 43.02734375 8.41796875 C42.48787109 7.31388672 42.48787109 7.31388672 41.9375 6.1875 C40 2.18149466 40 2.18149466 40 0 C44.62 0 49.24 0 54 0 C56.56765095 6.79774967 59.13103772 13.59708568 61.69042969 20.39794922 C62.5622956 22.71284748 63.4353395 25.02730242 64.30957031 27.34130859 C65.56362541 30.66128439 66.8134801 33.98281467 68.0625 37.3046875 C68.45622803 38.34430634 68.84995605 39.38392517 69.25561523 40.45504761 C69.61598877 41.41589264 69.9763623 42.37673767 70.34765625 43.36669922 C70.66742432 44.21497284 70.98719238 45.06324646 71.31665039 45.93722534 C72 48 72 48 72 50 C72.66 50 73.32 50 74 50 C74.34804688 48.7521875 74.69609375 47.504375 75.0546875 46.21875 C77.40162793 38.39745382 80.31310825 30.77251657 83.15283203 23.12011719 C84.13252426 20.47972114 85.10763281 17.83766618 86.08203125 15.1953125 C86.70286211 13.51552781 87.32394654 11.83583682 87.9453125 10.15625 C88.23697296 9.3667395 88.52863342 8.577229 88.82913208 7.76379395 C90.88315654 2.23368692 90.88315654 2.23368692 92 0 C93.98 0 95.96 0 98 0 C95.60620769 7.44861387 92.8328302 14.71052242 89.96484375 21.98828125 C89.48551895 23.20903854 89.00619415 24.42979584 88.51234436 25.68754578 C87.50441786 28.25395117 86.49488419 30.81971642 85.48413086 33.38500977 C84.19124834 36.6666435 82.90213053 39.94974073 81.61415768 43.23330402 C80.37875849 46.38153345 79.14044933 49.52861516 77.90234375 52.67578125 C77.44085434 53.85183426 76.97936493 55.02788727 76.50389099 56.23957825 C76.07326859 57.33138901 75.64264618 58.42319977 75.19897461 59.5480957 C74.82163681 60.5069014 74.44429901 61.46570709 74.05552673 62.4535675 C73.12633221 64.69522663 72.11873452 66.84796634 71 69 C70.01 69 69.02 69 68 69 C65.75274055 63.71859668 63.5108968 58.43493921 61.27392578 53.14916992 C60.51302182 51.35330075 59.75067108 49.55804383 58.98681641 47.76342773 C57.88578615 45.17593487 56.79006848 42.58624641 55.6953125 39.99609375 C55.3556546 39.20101913 55.0159967 38.40594452 54.66604614 37.58677673 C52.78009446 33.1086425 51.23084906 28.70184341 50 24 C49.34 24 48.68 24 48 24 C47.90396484 24.64493408 47.80792969 25.28986816 47.70898438 25.9543457 C46.75504243 30.05228846 45.21731493 33.82974816 43.65625 37.73046875 C43.32709595 38.56210037 42.99794189 39.39373199 42.65881348 40.25056458 C41.60981329 42.89779183 40.55487744 45.54261006 39.5 48.1875 C38.7899976 49.97837017 38.08035813 51.76938428 37.37109375 53.56054688 C32.19040337 66.61919326 32.19040337 66.61919326 31 69 C30.01 69 29.02 69 28 69 C27.54262451 67.89414551 27.08524902 66.78829102 26.61401367 65.64892578 C24.86379711 61.41808073 23.11244935 57.18770484 21.36056519 52.95755005 C20.58073719 51.07453293 19.80105293 49.19145627 19.02151489 47.30831909 C13.26844133 33.41386774 13.26844133 33.41386774 7.421875 19.55859375 C6.90987549 18.35638184 6.39787598 17.15416992 5.87036133 15.91552734 C4.93342869 13.72301876 3.99329235 11.53187574 3.04956055 9.34228516 C2.6400415 8.38499512 2.23052246 7.42770508 1.80859375 6.44140625 C1.27963501 5.21466187 1.27963501 5.21466187 0.73999023 3.96313477 C0 2 0 2 0 0 Z " fill="#F6F6FA" transform="translate(201,235)"/>
<path d="M0 0 C10.35481638 0 20.69182718 1.01826925 31 2 C31 40.61 31 79.22 31 119 C6 121 6 121 -1 121 C-1 119.68 -1 118.36 -1 117 C1.76989964 116.32923511 4.54079742 115.66323683 7.3125 115 C8.09818359 114.80921875 8.88386719 114.6184375 9.69335938 114.421875 C10.45068359 114.24140625 11.20800781 114.0609375 11.98828125 113.875 C12.68477783 113.70742188 13.38127441 113.53984375 14.09887695 113.3671875 C16 113 16 113 19 113 C19 78.35 19 43.7 19 8 C15.37 7.34 11.74 6.68 8 6 C5.32716296 5.35851911 2.65758298 4.70200305 0 4 C0 2.68 0 1.36 0 0 Z " fill="#F0F2F7" transform="translate(306,204)"/>
<path d="M0 0 C0 1.32 0 2.64 0 4 C-1.83169318 4.48539869 -3.66546059 4.96297186 -5.5 5.4375 C-6.5209375 5.70433594 -7.541875 5.97117188 -8.59375 6.24609375 C-12.34962476 7.07738254 -16.18293564 7.52286696 -20 8 C-20 42.65 -20 77.3 -20 113 C-16.04 113.66 -12.08 114.32 -8 115 C-5.32525813 115.6334915 -2.65422384 116.28540127 0 117 C0 118.32 0 119.64 0 121 C-10.35481638 121 -20.68770871 119.93748103 -31 119 C-31 80.39 -31 41.78 -31 2 C-8 0 -8 0 0 0 Z " fill="#FBFCFD" transform="translate(194,204)"/>
</svg>
